<svg width="200" height="200" viewBox="0 0 200 200" fill="none" xmlns="http://www.w3.org/2000/svg">
<path d="M127.608 33.3333C126.709 38.1735 126.887 43.1523 128.128 47.9162C129.37 52.68 131.645 57.1121 134.793 60.8975C137.94 64.6829 141.883 67.7289 146.34 69.8191C150.797 71.9093 155.66 72.9924 160.583 72.9916C162.625 72.9833 164.667 72.7832 166.667 72.4082V138.842C166.667 166.8 150.175 183.333 122.183 183.333H61.2165C33.1665 183.333 16.6665 166.8 16.6665 138.842V77.9666C16.6665 50.0166 33.1582 33.3333 61.2165 33.3333H127.608ZM128.617 83.2833L127.642 83.3499C126.836 83.4659 126.061 83.7425 125.364 84.1633C124.667 84.5842 124.061 85.1407 123.583 85.7999L103.5 111.633L80.6415 93.6333C79.995 93.1295 79.2545 92.7598 78.4635 92.5455C77.6724 92.3313 76.8465 92.2769 76.0342 92.3855C75.2218 92.4941 74.4393 92.7636 73.7322 93.1781C73.0252 93.5927 72.408 94.144 71.9165 94.7999L47.2998 126.55C46.4321 127.628 45.9639 128.974 45.9748 130.358L45.9998 131.275C46.1245 132.553 46.646 133.759 47.491 134.726C48.3361 135.692 49.4625 136.37 50.7122 136.664C51.9619 136.958 53.2723 136.854 54.4596 136.366C55.647 135.877 56.6518 135.03 57.3332 133.942L77.9248 107.308L100.792 125.233C101.435 125.751 102.177 126.135 102.971 126.361C103.766 126.587 104.598 126.651 105.419 126.55C106.239 126.448 107.03 126.182 107.745 125.768C108.461 125.355 109.086 124.802 109.583 124.142L133.4 93.4082V93.2499C134.382 91.9338 134.81 90.2855 134.592 88.6579C134.374 87.0303 133.527 85.5528 132.233 84.5416C131.587 84.0441 130.848 83.6815 130.059 83.4753C129.27 83.2692 128.448 83.2237 127.642 83.3416L128.617 83.2833Z" fill="#0095B6"/>
<g opacity="0.4" filter="url(#filter0_d)">
<path d="M141.667 37.5001C141.667 40.236 142.205 42.945 143.252 45.4727C144.299 48.0003 145.834 50.2969 147.768 52.2315C149.703 54.166 152 55.7006 154.527 56.7476C157.055 57.7945 159.764 58.3334 162.5 58.3334C165.236 58.3334 167.945 57.7945 170.472 56.7476C173 55.7006 175.297 54.166 177.231 52.2315C179.166 50.2969 180.7 48.0003 181.747 45.4727C182.794 42.945 183.333 40.236 183.333 37.5001C183.333 34.7642 182.794 32.0551 181.747 29.5275C180.7 26.9999 179.166 24.7032 177.231 22.7687C175.297 20.8341 173 19.2996 170.472 18.2526C167.945 17.2056 165.236 16.6667 162.5 16.6667C159.764 16.6667 157.055 17.2056 154.527 18.2526C152 19.2996 149.703 20.8341 147.768 22.7687C145.834 24.7032 144.299 26.9999 143.252 29.5275C142.205 32.0551 141.667 34.7642 141.667 37.5001V37.5001Z" fill="#FF8A00"/>
</g>
<defs>
<filter id="filter0_d" x="131.667" y="16.6667" width="61.6667" height="61.6667" filterUnits="userSpaceOnUse" color-interpolation-filters="sRGB">
<feFlood flood-opacity="0" result="BackgroundImageFix"/>
<feColorMatrix in="SourceAlpha" type="matrix" values="0 0 0 0 0 0 0 0 0 0 0 0 0 0 0 0 0 0 127 0" result="hardAlpha"/>
<feOffset dy="10"/>
<feGaussianBlur stdDeviation="5"/>
<feComposite in2="hardAlpha" operator="out"/>
<feColorMatrix type="matrix" values="0 0 0 0 0.9625 0 0 0 0 0.462 0 0 0 0 0 0 0 0 0.36 0"/>
<feBlend mode="normal" in2="BackgroundImageFix" result="effect1_dropShadow"/>
<feBlend mode="normal" in="SourceGraphic" in2="effect1_dropShadow" result="shape"/>
</filter>
</defs>
</svg>
